<svg width="374" height="407" viewBox="0 0 374 407" fill="none" xmlns="http://www.w3.org/2000/svg">
<path d="M175.867 1.57446C171.2 2.77446 159.2 6.64112 149.333 10.1078C132 16.2411 120.133 19.5745 59.3333 35.7078C10.1333 48.6411 0 52.2411 0 56.3745C0 61.1745 9.06667 64.5078 45.3333 72.9078C53.7333 74.9078 62.9333 77.4411 65.8667 78.6411L71.0667 80.6411L70.1333 98.7745C68.8 123.574 66.8 132.641 58 153.441C52.9333 165.174 49.3333 176.374 47.2 186.774C45.3333 195.308 42.2667 208.508 40.4 216.241C36.1333 233.841 35.3333 248.241 37.2 269.841C42.1333 326.374 62.5333 361.441 102 381.308C118.4 389.441 141.6 394.374 147.867 390.908C150.667 389.441 151.467 389.841 155.867 393.974C162.933 400.774 173.333 405.574 183.067 406.374C192.133 407.174 190.8 407.708 211.867 395.574C221.2 390.241 223.467 389.441 225.467 390.774C229.067 392.908 235.867 392.641 244.133 389.708C257.2 385.174 279.2 374.908 286.267 370.108C295.6 363.708 316.8 339.974 321.333 330.908C329.067 315.441 333.733 296.241 336.133 269.441C338.133 247.574 337.067 230.641 332 205.574C326.133 175.841 323.467 167.174 316.133 152.508C312.667 145.441 309.333 137.974 308.8 135.974C306.933 127.974 304.133 84.2411 305.333 81.0411C306.667 77.5745 311.067 75.7078 330.533 70.9078C348.4 66.3745 347.2 65.1745 348 90.9078C348.933 120.774 347.867 131.574 342.8 142.508C337.067 154.508 337.2 160.908 343.333 168.774C347.733 174.508 348 175.574 348 184.641C347.867 189.841 347.067 199.041 346 204.908C343.6 218.241 343.467 217.174 346.8 218.908C348.8 220.108 350 219.974 351.467 218.774C352.933 217.574 353.867 217.708 355.733 219.308C357.067 220.508 358.667 221.041 359.6 220.508C363.6 217.974 365.2 197.308 362.667 182.241C361.733 176.108 361.867 175.041 365.6 169.174C368.267 165.041 370 160.374 370.267 156.508C370.8 151.041 370 148.774 364.4 138.241L358 126.241L357.733 95.4411L357.467 64.6411L365.467 62.2411C381.333 57.4411 375.867 54.2411 324 38.1078C292.133 28.1078 202.667 2.77446 193.2 1.04112C185.6 -0.425542 183.333 -0.425542 175.867 1.57446ZM202 13.8411C204.933 14.5078 218.4 18.6411 232 22.9078C266.933 33.9745 304.533 45.3078 323.867 50.3745C332.933 52.7745 340.667 55.0411 341.067 55.4411C342.8 57.1745 345.733 56.3745 278 74.2411C260.4 78.9078 239.467 84.5078 231.333 86.6411C208.667 92.7745 190.8 96.2411 181.6 96.2411C175.333 96.2411 168.4 94.6411 152.933 89.7078C119.867 79.0411 78.1333 66.7745 54.9333 60.9078L33.2 55.4411L52.2667 50.3745C72.8 44.7745 106.8 34.3745 144 22.2411C177.6 11.3078 186.267 9.97446 202 13.8411ZM295.067 88.9078C296.133 95.4411 294.4 124.908 292.8 126.508C292.4 127.041 286.267 126.374 279.2 125.041C264.533 122.508 245.067 122.108 233.067 124.241C228.4 125.174 217.2 128.241 208.133 131.174C189.2 137.308 187.333 137.308 166.667 131.174C134 121.574 110.133 119.708 92.1333 125.308C86.8 127.041 82.1333 128.241 82 127.974C81.0667 127.174 79.7333 87.0411 80.4 85.0411C81.0667 83.3078 83.2 83.5745 95.6 87.0411C128.8 96.1078 173.2 107.041 180.133 107.708C187.733 108.641 195.333 106.774 236.667 94.7745C255.467 89.3078 288.133 81.7078 291.333 81.9745C293.333 82.2411 294.133 83.7078 295.067 88.9078ZM132.4 133.574C139.067 135.174 153.733 139.041 164.667 142.374C188.4 149.574 192.4 149.574 209.867 142.241C227.067 135.174 236.933 133.174 255.333 133.174C272.533 133.174 280.533 135.041 292.8 142.241C298.933 145.841 307.333 154.908 308.4 159.041C309.333 162.374 308.133 162.241 301.2 158.241C287.067 150.241 256.667 148.641 237.2 154.774C219.6 160.374 201.333 175.308 192.133 191.574C189.867 195.574 187.733 198.908 187.333 198.908C187.067 198.908 183.333 193.708 179.2 187.441C162.267 161.974 134.133 148.108 102.8 149.841C89.3333 150.641 78.6667 154.374 70.8 161.041C64.1333 166.774 62.4 166.908 64.4 161.308C66.8 154.908 76.9333 144.508 84.5333 140.641C90.2667 137.574 112.4 131.308 118.4 131.041C119.333 130.908 125.6 132.108 132.4 133.574ZM358.4 148.508C363.867 155.174 356.267 166.774 350 161.574C347.733 159.708 347.333 153.174 349.333 149.441C350.933 146.641 356.267 145.974 358.4 148.508ZM126 163.041C134.533 165.308 156 177.708 162.4 184.108C166.533 188.241 170.8 195.308 176.8 207.841C181.6 217.574 186.133 225.308 186.8 224.774C187.467 224.374 191.467 217.041 195.733 208.641C204.4 190.908 211.2 182.641 223.067 175.174C236.133 166.908 243.733 163.974 254 163.308C292.933 160.508 322.667 189.041 322.667 228.908C322.667 248.374 317.067 263.708 303.733 281.974C295.467 293.041 288.267 299.041 277.2 303.974C264.667 309.708 256.933 311.174 241.333 311.441L227.333 311.708L226.933 315.174C226.267 320.774 230.133 321.974 247.2 321.308C263.733 320.508 276.267 316.908 289.067 309.174C299.6 302.908 312.533 290.508 318.133 281.441C322.933 273.841 325.333 271.708 325.333 275.308C325.333 280.374 320.667 303.441 317.867 312.241C307.6 344.641 276.933 373.174 245.467 379.708C240.133 380.774 235.467 381.441 235.2 381.174C234.8 380.908 234.133 376.641 233.6 371.708C231.733 356.641 226.933 356.374 221.733 371.041C216.4 386.108 203.333 393.974 184 394.108C168.4 394.241 160 388.108 150.8 369.974C148.533 365.574 147.2 364.241 144.667 364.241C141.067 364.241 140.533 366.108 141.2 375.974L141.6 380.374L136.4 379.574C113.867 375.708 99.7333 368.908 84.5333 354.508C71.0667 341.841 62.1333 328.908 56.5333 313.574C50.1333 296.508 45.8667 273.574 49.2 273.574C49.7333 273.574 52.5333 277.041 55.3333 281.174C72.2667 306.908 89.7333 318.241 114.8 319.841C126.667 320.641 139.333 319.574 142.533 317.574C144.133 316.641 144.133 315.974 142.267 313.041C140 309.708 139.6 309.708 129.6 310.508C111.067 311.841 93.4667 305.308 78.8 291.574C68.8 281.974 58.8 266.508 54 252.774C48.4 237.041 50 216.908 58.2667 199.441C63.3333 188.508 78.6667 173.308 89.7333 168.241C102 162.508 116.267 160.374 126 163.041Z" fill="white"/>
<path d="M112 209.441C102.533 212.374 94.2664 219.441 92.6664 225.841C91.5998 230.241 92.5331 230.508 98.1331 227.041L102.4 224.508L102.933 232.374C103.866 244.908 110.933 252.374 122.933 253.174C135.2 254.108 144.133 246.774 146 234.241C148.533 217.441 130 203.974 112 209.441ZM132 224.108C134 227.974 133.733 229.308 129.866 231.708C126.666 233.841 126.4 233.841 123.733 231.174C121.2 228.774 121.066 227.841 122.4 224.908C124.266 220.774 129.866 220.374 132 224.108Z" fill="white"/>
<path d="M243.333 210.374C233.067 214.108 228 221.708 228 233.308C228 238.374 228.8 240.908 231.733 244.641C241.333 257.041 258.933 256.641 268.533 243.841C270.667 241.041 271.333 238.108 271.333 232.108C271.333 224.908 271.6 224.374 274 225.041C275.467 225.574 277.733 226.774 279.067 227.974C281.2 229.841 281.333 229.708 281.333 225.974C281.333 220.374 273.467 212.774 264.8 210.241C256.667 207.841 250.267 207.841 243.333 210.374ZM251.2 222.374C255.333 226.374 252.4 233.574 246.533 233.574C245.067 233.574 243.333 232.108 242.4 230.241C241.2 227.708 241.333 226.374 243.2 223.574C245.733 219.708 248.267 219.308 251.2 222.374Z" fill="white"/>
<path d="M197.6 249.174C195.733 249.974 188 265.041 188 267.841C188 271.574 185.867 269.174 183.6 263.041C181.2 256.108 174.4 249.174 170.8 249.841C166.8 250.641 167.6 258.108 173.333 271.441C176.267 278.508 180 289.041 181.6 294.908C183.2 300.774 184.8 305.574 185.333 305.574C186.133 305.574 193.867 285.974 201.6 264.508C206.533 250.641 205.333 246.108 197.6 249.174Z" fill="white"/>
</svg>
