<svg width="965" height="407" viewBox="0 0 965 407" fill="none" xmlns="http://www.w3.org/2000/svg">
<g clip-path="url(#clip0_288_1513)">
<path d="M176.2 1.66626C171.534 2.86624 159.534 6.73291 149.667 10.1996C132.333 16.3329 120.467 19.6663 59.6668 35.7996C10.4668 48.7329 0.333496 52.3329 0.333496 56.4662C0.333496 61.2663 9.40016 64.5996 45.6668 72.9996C54.0668 74.9996 63.2668 77.5329 66.2002 78.7329L71.4002 80.7329L70.4668 98.8663C69.1335 123.666 67.1335 132.733 58.3335 153.533C53.2668 165.266 49.6668 176.466 47.5335 186.866C45.6668 195.4 42.6002 208.6 40.7335 216.333C36.4668 233.933 35.6668 248.333 37.5335 269.933C42.4668 326.466 62.8668 361.533 102.334 381.4C118.734 389.533 141.934 394.466 148.2 391C151 389.533 151.8 389.933 156.2 394.066C163.267 400.866 173.667 405.666 183.4 406.466C192.467 407.266 191.133 407.8 212.2 395.666C221.534 390.333 223.8 389.533 225.8 390.866C229.4 393 236.2 392.733 244.467 389.8C257.534 385.266 279.534 375 286.6 370.2C295.934 363.8 317.134 340.066 321.667 331C329.4 315.533 334.067 296.333 336.467 269.533C338.467 247.666 337.4 230.733 332.334 205.666C326.467 175.933 323.8 167.266 316.467 152.6C313 145.533 309.667 138.066 309.134 136.066C307.267 128.066 304.467 84.3329 305.667 81.1329C307 77.6663 311.4 75.7996 330.867 70.9996C348.734 66.4662 347.534 65.2663 348.334 90.9996C349.267 120.866 348.2 131.666 343.134 142.6C337.4 154.6 337.534 161 343.667 168.866C348.067 174.6 348.334 175.666 348.334 184.733C348.2 189.933 347.4 199.133 346.334 205C343.934 218.333 343.8 217.266 347.134 219C349.134 220.2 350.334 220.066 351.8 218.866C353.267 217.666 354.2 217.8 356.067 219.4C357.4 220.6 359 221.133 359.934 220.6C363.934 218.066 365.534 197.4 363 182.333C362.067 176.2 362.2 175.133 365.934 169.266C368.6 165.133 370.334 160.466 370.6 156.6C371.134 151.133 370.334 148.866 364.734 138.333L358.334 126.333L358.067 95.5329L357.8 64.7329L365.8 62.3329C381.667 57.5329 376.2 54.3329 324.334 38.1996C292.467 28.1996 203 2.86624 193.534 1.13293C185.934 -0.33374 183.667 -0.33374 176.2 1.66626ZM202.334 13.9329C205.267 14.5996 218.734 18.7329 232.334 22.9996C267.267 34.0663 304.867 45.3996 324.2 50.4662C333.267 52.8663 341 55.1329 341.4 55.5329C343.134 57.2663 346.067 56.4662 278.333 74.3329C260.734 78.9996 239.8 84.5996 231.667 86.7329C209 92.8663 191.133 96.3329 181.934 96.3329C175.667 96.3329 168.734 94.7329 153.267 89.7996C120.2 79.1329 78.4668 66.8663 55.2668 60.9996L33.5335 55.5329L52.6002 50.4662C73.1335 44.8663 107.133 34.4662 144.333 22.3329C177.934 11.3996 186.6 10.0663 202.334 13.9329ZM295.4 88.9996C296.467 95.5329 294.734 125 293.134 126.6C292.734 127.133 286.6 126.466 279.534 125.133C264.867 122.6 245.4 122.2 233.4 124.333C228.734 125.266 217.534 128.333 208.467 131.266C189.534 137.4 187.667 137.4 167 131.266C134.333 121.666 110.467 119.8 92.4668 125.4C87.1335 127.133 82.4668 128.333 82.3335 128.066C81.4002 127.266 80.0668 87.1329 80.7335 85.1329C81.4002 83.3996 83.5335 83.6663 95.9335 87.1329C129.133 96.1996 173.534 107.133 180.467 107.8C188.067 108.733 195.667 106.866 237 94.8663C255.8 89.3996 288.467 81.7996 291.667 82.0663C293.667 82.3329 294.467 83.7996 295.4 88.9996ZM132.734 133.666C139.4 135.266 154.067 139.133 165 142.466C188.734 149.666 192.734 149.666 210.2 142.333C227.4 135.266 237.267 133.266 255.667 133.266C272.867 133.266 280.867 135.133 293.134 142.333C299.267 145.933 307.667 155 308.734 159.133C309.667 162.466 308.467 162.333 301.534 158.333C287.4 150.333 257 148.733 237.534 154.866C219.934 160.466 201.667 175.4 192.467 191.666C190.2 195.666 188.067 199 187.667 199C187.4 199 183.667 193.8 179.534 187.533C162.6 162.066 134.467 148.2 103.133 149.933C89.6668 150.733 79.0002 154.466 71.1335 161.133C64.4668 166.866 62.7335 167 64.7335 161.4C67.1335 155 77.2668 144.6 84.8668 140.733C90.6002 137.666 112.734 131.4 118.734 131.133C119.667 131 125.934 132.2 132.734 133.666ZM358.734 148.6C364.2 155.266 356.6 166.866 350.334 161.666C348.067 159.8 347.667 153.266 349.667 149.533C351.267 146.733 356.6 146.066 358.734 148.6ZM126.334 163.133C134.867 165.4 156.334 177.8 162.734 184.2C166.867 188.333 171.133 195.4 177.133 207.933C181.934 217.666 186.467 225.4 187.133 224.866C187.8 224.466 191.8 217.133 196.067 208.733C204.734 191 211.534 182.733 223.4 175.266C236.467 167 244.067 164.066 254.334 163.4C293.267 160.6 323 189.133 323 229C323 248.466 317.4 263.8 304.067 282.066C295.8 293.133 288.6 299.133 277.534 304.066C265 309.8 257.267 311.266 241.667 311.533L227.667 311.8L227.267 315.266C226.6 320.866 230.467 322.066 247.534 321.4C264.067 320.6 276.6 317 289.4 309.266C299.934 303 312.867 290.6 318.467 281.533C323.267 273.933 325.667 271.8 325.667 275.4C325.667 280.466 321 303.533 318.2 312.333C307.934 344.733 277.267 373.266 245.8 379.8C240.467 380.866 235.8 381.533 235.534 381.266C235.134 381 234.467 376.733 233.934 371.8C232.067 356.733 227.267 356.466 222.067 371.133C216.734 386.2 203.667 394.066 184.334 394.2C168.734 394.333 160.334 388.2 151.133 370.066C148.867 365.666 147.534 364.333 145 364.333C141.4 364.333 140.867 366.2 141.534 376.066L141.934 380.466L136.734 379.666C114.2 375.8 100.067 369 84.8668 354.6C71.4002 341.933 62.4668 329 56.8668 313.666C50.4668 296.6 46.2002 273.666 49.5335 273.666C50.0668 273.666 52.8668 277.133 55.6668 281.266C72.6002 307 90.0668 318.333 115.133 319.933C127 320.733 139.667 319.666 142.867 317.666C144.467 316.733 144.467 316.066 142.6 313.133C140.333 309.8 139.934 309.8 129.934 310.6C111.4 311.933 93.8002 305.4 79.1335 291.666C69.1335 282.066 59.1335 266.6 54.3335 252.866C48.7335 237.133 50.3335 217 58.6002 199.533C63.6668 188.6 79.0002 173.4 90.0668 168.333C102.334 162.6 116.6 160.466 126.334 163.133Z" fill="black"/>
<path d="M112.333 209.533C102.867 212.466 94.5999 219.533 92.9999 225.933C91.9333 230.333 92.8666 230.599 98.4666 227.133L102.733 224.599L103.267 232.466C104.2 244.999 111.267 252.466 123.267 253.266C135.533 254.199 144.467 246.866 146.333 234.333C148.867 217.533 130.333 204.066 112.333 209.533ZM132.333 224.199C134.333 228.066 134.067 229.399 130.2 231.799C127 233.933 126.733 233.933 124.067 231.266C121.533 228.866 121.4 227.933 122.733 224.999C124.6 220.866 130.2 220.466 132.333 224.199Z" fill="black"/>
<path d="M243.667 210.466C233.4 214.199 228.333 221.799 228.333 233.399C228.333 238.466 229.133 240.999 232.067 244.733C241.667 257.133 259.267 256.733 268.867 243.933C271 241.133 271.667 238.199 271.667 232.199C271.667 224.999 271.933 224.466 274.333 225.133C275.8 225.666 278.067 226.866 279.4 228.066C281.534 229.933 281.667 229.799 281.667 226.066C281.667 220.466 273.8 212.866 265.133 210.333C257 207.933 250.6 207.933 243.667 210.466ZM251.533 222.466C255.667 226.466 252.733 233.666 246.867 233.666C245.4 233.666 243.667 232.199 242.733 230.333C241.533 227.799 241.667 226.466 243.533 223.666C246.067 219.799 248.6 219.399 251.533 222.466Z" fill="black"/>
<path d="M197.934 249.266C196.067 250.066 188.334 265.133 188.334 267.933C188.334 271.666 186.2 269.266 183.934 263.133C181.534 256.199 174.734 249.266 171.134 249.933C167.134 250.733 167.934 258.199 173.667 271.533C176.6 278.599 180.334 289.133 181.934 294.999C183.534 300.866 185.134 305.666 185.667 305.666C186.467 305.666 194.2 286.066 201.934 264.599C206.867 250.733 205.667 246.199 197.934 249.266Z" fill="black"/>
<path d="M462.26 194C456.567 194 452.133 192.507 448.96 189.52C445.787 186.533 444.2 182.333 444.2 176.92V112.8C444.2 107.573 445.74 103.467 448.82 100.48C451.993 97.4933 456.38 96 461.98 96H505.38C509.02 96 510.84 97.4933 510.84 100.48C510.84 101.787 510.373 102.813 509.44 103.56C508.507 104.307 507.153 104.68 505.38 104.68H462.12C459.88 104.68 458.06 105.427 456.66 106.92C455.353 108.413 454.7 110.373 454.7 112.8V139.54H494.74C498.38 139.54 500.2 141.033 500.2 144.02C500.2 145.42 499.687 146.493 498.66 147.24C497.727 147.987 496.42 148.36 494.74 148.36H454.7V177.2C454.7 179.627 455.353 181.587 456.66 183.08C458.06 184.573 459.88 185.32 462.12 185.32H508.46C512.1 185.32 513.92 186.767 513.92 189.66C513.92 191.06 513.407 192.133 512.38 192.88C511.447 193.627 510.14 194 508.46 194H462.26ZM556.292 195.4C549.759 195.4 543.599 194.187 537.812 191.76C532.025 189.24 527.452 185.787 524.092 181.4C523.439 180.467 523.112 179.533 523.112 178.6C523.112 177.667 523.345 176.873 523.812 176.22C524.372 175.473 525.072 174.913 525.912 174.54C526.659 174.26 527.265 174.12 527.732 174.12C528.572 174.12 529.272 174.353 529.832 174.82C530.485 175.193 531.232 175.847 532.072 176.78C538.139 183.22 546.212 186.44 556.292 186.44C561.145 186.44 565.065 185.6 568.052 183.92C571.039 182.24 572.532 179.907 572.532 176.92C572.532 174.773 571.925 173.047 570.712 171.74C569.592 170.34 567.632 169.08 564.832 167.96C562.125 166.747 557.645 165.067 551.392 162.92C545.325 160.867 540.565 158.907 537.112 157.04C533.659 155.173 531.092 153.073 529.412 150.74C527.732 148.313 526.892 145.373 526.892 141.92C526.892 136.507 529.225 132.167 533.892 128.9C538.652 125.633 544.952 124 552.792 124C558.579 124 563.945 125.027 568.892 127.08C573.839 129.04 577.572 131.7 580.092 135.06C580.839 136.087 581.212 137.067 581.212 138C581.212 139.4 580.465 140.52 578.972 141.36C578.039 141.92 577.105 142.2 576.172 142.2C574.585 142.2 573.092 141.5 571.692 140.1C569.265 137.673 566.605 135.9 563.712 134.78C560.819 133.567 557.132 132.96 552.652 132.96C547.705 132.96 543.925 133.753 541.312 135.34C538.699 136.927 537.392 139.167 537.392 142.06C537.392 144.207 537.905 145.933 538.932 147.24C540.052 148.453 541.779 149.573 544.112 150.6C546.539 151.533 550.739 152.98 556.712 154.94C563.432 157.18 568.612 159.327 572.252 161.38C575.985 163.34 578.645 165.533 580.232 167.96C581.912 170.387 582.752 173.373 582.752 176.92C582.752 182.52 580.279 187 575.332 190.36C570.479 193.72 564.132 195.4 556.292 195.4ZM632.816 195.4C625.349 195.4 618.769 193.953 613.076 191.06C607.383 188.073 602.996 183.873 599.916 178.46C596.836 173.047 595.296 166.747 595.296 159.56C595.296 152.467 596.836 146.26 599.916 140.94C602.996 135.527 607.383 131.373 613.076 128.48C618.769 125.493 625.349 124 632.816 124C639.816 124 645.883 124.98 651.016 126.94C656.149 128.9 660.209 131.793 663.196 135.62C663.943 136.647 664.316 137.627 664.316 138.56C664.316 139.96 663.616 141.22 662.216 142.34C661.563 142.9 660.723 143.18 659.696 143.18C658.109 143.18 656.616 142.48 655.216 141.08C650.269 135.573 642.803 132.82 632.816 132.82C624.136 132.82 617.416 135.153 612.656 139.82C607.989 144.393 605.656 150.973 605.656 159.56C605.656 168.053 608.036 174.68 612.796 179.44C617.556 184.2 624.229 186.58 632.816 186.58C637.576 186.58 641.963 185.88 645.976 184.48C649.989 182.987 653.303 180.887 655.916 178.18C657.503 176.593 658.996 175.8 660.396 175.8C661.236 175.8 662.169 176.173 663.196 176.92C664.503 178.04 665.156 179.253 665.156 180.56C665.156 181.773 664.643 182.8 663.616 183.64C659.043 187.747 654.283 190.733 649.336 192.6C644.389 194.467 638.883 195.4 632.816 195.4ZM709.801 195.4C700.654 195.4 693.467 192.787 688.241 187.56C683.107 182.333 680.541 175.053 680.541 165.72V129.6C680.541 127.827 681.007 126.473 681.941 125.54C682.874 124.513 684.134 124 685.721 124C687.307 124 688.521 124.513 689.361 125.54C690.294 126.473 690.761 127.827 690.761 129.6V165.72C690.761 172.347 692.534 177.48 696.081 181.12C699.627 184.76 704.574 186.58 710.921 186.58C715.961 186.58 720.441 185.46 724.361 183.22C728.281 180.98 731.314 177.853 733.461 173.84C735.701 169.827 736.821 165.207 736.821 159.98V129.6C736.821 127.827 737.241 126.473 738.081 125.54C739.014 124.513 740.321 124 742.001 124C743.587 124 744.801 124.513 745.641 125.54C746.574 126.473 747.041 127.827 747.041 129.6V189.8C747.041 191.573 746.574 192.973 745.641 194C744.801 194.933 743.587 195.4 742.001 195.4C740.321 195.4 739.014 194.887 738.081 193.86C737.241 192.833 736.821 191.48 736.821 189.8V181.54C733.367 186.02 729.354 189.473 724.781 191.9C720.207 194.233 715.214 195.4 709.801 195.4ZM800.987 195.4C788.853 195.4 779.473 192.273 772.847 186.02C766.22 179.767 762.907 170.9 762.907 159.42C762.907 148.407 766.267 139.773 772.987 133.52C779.707 127.173 788.9 124 800.567 124C807.753 124 814.147 125.167 819.747 127.5C825.347 129.74 829.687 132.96 832.767 137.16C835.94 141.267 837.527 145.98 837.527 151.3C837.527 155.22 836.407 158.253 834.167 160.4C832.02 162.547 829.033 163.62 825.207 163.62H773.407C773.407 170.807 775.833 176.453 780.687 180.56C785.54 184.573 792.307 186.58 800.987 186.58C806.307 186.58 810.88 186.02 814.707 184.9C818.533 183.687 822.127 181.773 825.487 179.16C827.26 177.667 828.707 176.92 829.827 176.92C830.667 176.92 831.46 177.293 832.207 178.04C833.513 179.16 834.167 180.327 834.167 181.54C834.167 182.473 833.607 183.5 832.487 184.62C828.66 188.26 824.18 190.967 819.047 192.74C813.913 194.513 807.893 195.4 800.987 195.4ZM822.127 155.36C823.807 155.36 825.067 155.033 825.907 154.38C826.747 153.633 827.167 152.327 827.167 150.46C827.167 147.1 826.047 144.067 823.807 141.36C821.567 138.653 818.393 136.553 814.287 135.06C810.273 133.567 805.7 132.82 800.567 132.82C792.26 132.82 785.68 134.873 780.827 138.98C776.067 142.993 773.687 148.453 773.687 155.36H822.127ZM861.346 195.4C859.76 195.4 858.5 194.933 857.566 194C856.726 192.973 856.306 191.573 856.306 189.8V93.34C856.306 91.5667 856.726 90.2133 857.566 89.28C858.5 88.2533 859.76 87.74 861.346 87.74C862.933 87.74 864.193 88.2533 865.126 89.28C866.06 90.2133 866.526 91.5667 866.526 93.34V189.8C866.526 191.48 866.06 192.833 865.126 193.86C864.286 194.887 863.026 195.4 861.346 195.4ZM914.67 195.4C905.523 195.4 898.337 193.393 893.11 189.38C887.977 185.367 885.41 179.813 885.41 172.72C885.41 165.72 888.117 160.167 893.53 156.06C899.037 151.953 906.503 149.9 915.93 149.9C921.437 149.9 926.29 150.647 930.49 152.14C934.783 153.633 938.097 155.64 940.43 158.16V149.2C940.43 143.88 938.657 139.82 935.11 137.02C931.657 134.22 926.57 132.82 919.85 132.82C911.17 132.82 903.657 134.873 897.31 138.98C895.723 139.913 894.417 140.38 893.39 140.38C892.457 140.38 891.523 140.007 890.59 139.26C889.563 138.42 889.05 137.347 889.05 136.04C889.05 134.64 889.657 133.473 890.87 132.54C894.23 129.927 898.477 127.873 903.61 126.38C908.837 124.793 914.157 124 919.57 124C929.463 124 937.117 126.24 942.53 130.72C948.037 135.2 950.79 141.5 950.79 149.62V189.94C950.79 193.58 949.11 195.4 945.75 195.4C944.257 195.4 943.043 194.933 942.11 194C941.177 192.973 940.71 191.667 940.71 190.08V185.04C934.923 191.947 926.243 195.4 914.67 195.4ZM915.93 186.86C923.21 186.86 929.137 185.507 933.71 182.8C938.283 180 940.57 176.407 940.57 172.02C940.57 167.633 938.423 164.273 934.13 161.94C929.93 159.513 923.957 158.3 916.21 158.3C909.677 158.3 904.637 159.56 901.09 162.08C897.543 164.507 895.77 168.053 895.77 172.72C895.77 177.293 897.497 180.793 900.95 183.22C904.403 185.647 909.397 186.86 915.93 186.86Z" fill="black"/>
<path d="M477.1 324.6C464.967 324.6 455.587 321.474 448.96 315.22C442.333 308.967 439.02 300.1 439.02 288.62C439.02 277.607 442.38 268.974 449.1 262.72C455.82 256.374 465.013 253.2 476.68 253.2C483.867 253.2 490.26 254.367 495.86 256.7C501.46 258.94 505.8 262.16 508.88 266.36C512.053 270.467 513.64 275.18 513.64 280.5C513.64 284.42 512.52 287.454 510.28 289.6C508.133 291.747 505.147 292.82 501.32 292.82H449.52C449.52 300.007 451.947 305.654 456.8 309.76C461.653 313.774 468.42 315.78 477.1 315.78C482.42 315.78 486.993 315.22 490.82 314.1C494.647 312.887 498.24 310.974 501.6 308.36C503.373 306.867 504.82 306.12 505.94 306.12C506.78 306.12 507.573 306.494 508.32 307.24C509.627 308.36 510.28 309.527 510.28 310.74C510.28 311.674 509.72 312.7 508.6 313.82C504.773 317.46 500.293 320.167 495.16 321.94C490.027 323.714 484.007 324.6 477.1 324.6ZM498.24 284.56C499.92 284.56 501.18 284.234 502.02 283.58C502.86 282.834 503.28 281.527 503.28 279.66C503.28 276.3 502.16 273.267 499.92 270.56C497.68 267.854 494.507 265.754 490.4 264.26C486.387 262.767 481.813 262.02 476.68 262.02C468.373 262.02 461.793 264.074 456.94 268.18C452.18 272.194 449.8 277.654 449.8 284.56H498.24ZM534.66 324.6C533.073 324.6 531.813 324.134 530.88 323.2C530.04 322.174 529.62 320.774 529.62 319V258.8C529.62 257.027 530.04 255.674 530.88 254.74C531.72 253.714 532.98 253.2 534.66 253.2C536.246 253.2 537.46 253.714 538.3 254.74C539.233 255.674 539.7 257.027 539.7 258.8V267.06C543.153 262.487 547.306 259.034 552.16 256.7C557.106 254.367 562.52 253.2 568.4 253.2C577.266 253.2 584.08 255.674 588.84 260.62C593.693 265.567 596.12 272.66 596.12 281.9V319C596.12 320.774 595.653 322.174 594.72 323.2C593.786 324.134 592.526 324.6 590.94 324.6C589.26 324.6 588 324.134 587.16 323.2C586.32 322.174 585.9 320.774 585.9 319V281.9C585.9 268.647 579.646 262.02 567.14 262.02C558.926 262.02 552.3 264.447 547.26 269.3C542.313 274.154 539.84 280.594 539.84 288.62V319C539.84 320.68 539.373 322.034 538.44 323.06C537.6 324.087 536.34 324.6 534.66 324.6ZM660.507 324.6C658.92 324.6 657.66 324.134 656.727 323.2C655.887 322.174 655.467 320.774 655.467 319V222.54C655.467 220.767 655.887 219.414 656.727 218.48C657.66 217.454 658.92 216.94 660.507 216.94C662.093 216.94 663.353 217.454 664.287 218.48C665.22 219.414 665.687 220.767 665.687 222.54V319C665.687 320.68 665.22 322.034 664.287 323.06C663.447 324.087 662.187 324.6 660.507 324.6ZM695.91 324.6C694.323 324.6 693.063 324.134 692.13 323.2C691.29 322.174 690.87 320.774 690.87 319V258.8C690.87 257.027 691.29 255.674 692.13 254.74C693.063 253.714 694.323 253.2 695.91 253.2C697.59 253.2 698.85 253.714 699.69 254.74C700.623 255.767 701.09 257.12 701.09 258.8V319C701.09 320.68 700.623 322.034 699.69 323.06C698.85 324.087 697.59 324.6 695.91 324.6ZM694.65 245.08C693.25 244.427 692.55 243.4 692.55 242C692.55 241.347 692.69 240.74 692.97 240.18L701.65 220.44C702.77 217.827 704.31 216.52 706.27 216.52C707.203 216.52 708.09 216.754 708.93 217.22C710.797 218.154 711.73 219.414 711.73 221C711.73 221.84 711.45 222.774 710.89 223.8L699.97 243.12C699.13 244.707 697.917 245.5 696.33 245.5C695.77 245.5 695.21 245.36 694.65 245.08ZM728.39 324.6C726.803 324.6 725.543 324.134 724.61 323.2C723.77 322.174 723.35 320.774 723.35 319V258.8C723.35 257.027 723.77 255.674 724.61 254.74C725.45 253.714 726.71 253.2 728.39 253.2C729.977 253.2 731.19 253.714 732.03 254.74C732.963 255.674 733.43 257.027 733.43 258.8V267.06C736.883 262.487 741.037 259.034 745.89 256.7C750.837 254.367 756.25 253.2 762.13 253.2C770.997 253.2 777.81 255.674 782.57 260.62C787.423 265.567 789.85 272.66 789.85 281.9V319C789.85 320.774 789.383 322.174 788.45 323.2C787.517 324.134 786.257 324.6 784.67 324.6C782.99 324.6 781.73 324.134 780.89 323.2C780.05 322.174 779.63 320.774 779.63 319V281.9C779.63 268.647 773.377 262.02 760.87 262.02C752.657 262.02 746.03 264.447 740.99 269.3C736.043 274.154 733.57 280.594 733.57 288.62V319C733.57 320.68 733.103 322.034 732.17 323.06C731.33 324.087 730.07 324.6 728.39 324.6ZM843.096 324.6C830.963 324.6 821.583 321.474 814.956 315.22C808.329 308.967 805.016 300.1 805.016 288.62C805.016 277.607 808.376 268.974 815.096 262.72C821.816 256.374 831.009 253.2 842.676 253.2C849.863 253.2 856.256 254.367 861.856 256.7C867.456 258.94 871.796 262.16 874.876 266.36C878.049 270.467 879.636 275.18 879.636 280.5C879.636 284.42 878.516 287.454 876.276 289.6C874.129 291.747 871.143 292.82 867.316 292.82H815.516C815.516 300.007 817.943 305.654 822.796 309.76C827.649 313.774 834.416 315.78 843.096 315.78C848.416 315.78 852.989 315.22 856.816 314.1C860.643 312.887 864.236 310.974 867.596 308.36C869.369 306.867 870.816 306.12 871.936 306.12C872.776 306.12 873.569 306.494 874.316 307.24C875.623 308.36 876.276 309.527 876.276 310.74C876.276 311.674 875.716 312.7 874.596 313.82C870.769 317.46 866.289 320.167 861.156 321.94C856.023 323.714 850.003 324.6 843.096 324.6ZM864.236 284.56C865.916 284.56 867.176 284.234 868.016 283.58C868.856 282.834 869.276 281.527 869.276 279.66C869.276 276.3 868.156 273.267 865.916 270.56C863.676 267.854 860.503 265.754 856.396 264.26C852.383 262.767 847.809 262.02 842.676 262.02C834.369 262.02 827.789 264.074 822.936 268.18C818.176 272.194 815.796 277.654 815.796 284.56H864.236ZM917.541 324.6C908.394 324.6 901.208 322.594 895.981 318.58C890.848 314.567 888.281 309.014 888.281 301.92C888.281 294.92 890.988 289.367 896.401 285.26C901.908 281.154 909.374 279.1 918.801 279.1C924.308 279.1 929.161 279.847 933.361 281.34C937.654 282.834 940.968 284.84 943.301 287.36V278.4C943.301 273.08 941.528 269.02 937.981 266.22C934.528 263.42 929.441 262.02 922.721 262.02C914.041 262.02 906.528 264.074 900.181 268.18C898.594 269.114 897.288 269.58 896.261 269.58C895.328 269.58 894.394 269.207 893.461 268.46C892.434 267.62 891.921 266.547 891.921 265.24C891.921 263.84 892.528 262.674 893.741 261.74C897.101 259.127 901.348 257.074 906.481 255.58C911.708 253.994 917.028 253.2 922.441 253.2C932.334 253.2 939.988 255.44 945.401 259.92C950.908 264.4 953.661 270.7 953.661 278.82V319.14C953.661 322.78 951.981 324.6 948.621 324.6C947.128 324.6 945.914 324.134 944.981 323.2C944.048 322.174 943.581 320.867 943.581 319.28V314.24C937.794 321.147 929.114 324.6 917.541 324.6ZM918.801 316.06C926.081 316.06 932.008 314.707 936.581 312C941.154 309.2 943.441 305.607 943.441 301.22C943.441 296.834 941.294 293.474 937.001 291.14C932.801 288.714 926.828 287.5 919.081 287.5C912.548 287.5 907.508 288.76 903.961 291.28C900.414 293.707 898.641 297.254 898.641 301.92C898.641 306.494 900.368 309.994 903.821 312.42C907.274 314.847 912.268 316.06 918.801 316.06Z" fill="black"/>
</g>
<defs>
<clipPath id="clip0_288_1513">
<rect width="965" height="407" fill="white"/>
</clipPath>
</defs>
</svg>
