<svg width="374" height="407" viewBox="0 0 374 407" fill="white" xmlns="http://www.w3.org/2000/svg">
<path d="M176.2 1.66625C171.534 2.86625 159.534 6.73292 149.667 10.1996C132.334 16.3329 120.467 19.6663 59.6668 35.7996C10.4668 48.7329 0.333496 52.3329 0.333496 56.4663C0.333496 61.2663 9.40016 64.5996 45.6668 72.9996C54.0668 74.9996 63.2668 77.5329 66.2002 78.7329L71.4002 80.7329L70.4668 98.8663C69.1335 123.666 67.1335 132.733 58.3335 153.533C53.2668 165.266 49.6668 176.466 47.5335 186.866C45.6668 195.4 42.6002 208.6 40.7335 216.333C36.4668 233.933 35.6668 248.333 37.5335 269.933C42.4668 326.466 62.8668 361.533 102.334 381.4C118.734 389.533 141.934 394.466 148.2 391C151 389.533 151.8 389.933 156.2 394.066C163.267 400.866 173.667 405.666 183.4 406.466C192.467 407.266 191.134 407.8 212.2 395.666C221.534 390.333 223.8 389.533 225.8 390.866C229.4 393 236.2 392.733 244.467 389.8C257.534 385.266 279.534 375 286.6 370.2C295.934 363.8 317.134 340.066 321.667 331C329.4 315.533 334.067 296.333 336.467 269.533C338.467 247.666 337.4 230.733 332.334 205.666C326.467 175.933 323.8 167.266 316.467 152.6C313 145.533 309.667 138.066 309.134 136.066C307.267 128.066 304.467 84.3329 305.667 81.1329C307 77.6663 311.4 75.7996 330.867 70.9996C348.734 66.4663 347.534 65.2663 348.334 90.9996C349.267 120.866 348.2 131.666 343.134 142.6C337.4 154.6 337.534 161 343.667 168.866C348.067 174.6 348.334 175.666 348.334 184.733C348.2 189.933 347.4 199.133 346.334 205C343.934 218.333 343.8 217.266 347.134 219C349.134 220.2 350.334 220.066 351.8 218.866C353.267 217.666 354.2 217.8 356.067 219.4C357.4 220.6 359 221.133 359.934 220.6C363.934 218.066 365.534 197.4 363 182.333C362.067 176.2 362.2 175.133 365.934 169.266C368.6 165.133 370.334 160.466 370.6 156.6C371.134 151.133 370.334 148.866 364.734 138.333L358.334 126.333L358.067 95.5329L357.8 64.7329L365.8 62.3329C381.667 57.5329 376.2 54.3329 324.334 38.1996C292.467 28.1996 203 2.86625 193.534 1.13292C185.934 -0.333745 183.667 -0.333745 176.2 1.66625ZM202.334 13.9329C205.267 14.5996 218.734 18.7329 232.334 22.9996C267.267 34.0663 304.867 45.3996 324.2 50.4663C333.267 52.8663 341 55.1329 341.4 55.5329C343.134 57.2663 346.067 56.4663 278.334 74.3329C260.734 78.9996 239.8 84.5996 231.667 86.7329C209 92.8663 191.134 96.3329 181.934 96.3329C175.667 96.3329 168.734 94.7329 153.267 89.7996C120.2 79.1329 78.4668 66.8663 55.2668 60.9996L33.5335 55.5329L52.6002 50.4663C73.1335 44.8663 107.134 34.4663 144.334 22.3329C177.934 11.3996 186.6 10.0663 202.334 13.9329ZM295.4 88.9996C296.467 95.5329 294.734 125 293.134 126.6C292.734 127.133 286.6 126.466 279.534 125.133C264.867 122.6 245.4 122.2 233.4 124.333C228.734 125.266 217.534 128.333 208.467 131.266C189.534 137.4 187.667 137.4 167 131.266C134.334 121.666 110.467 119.8 92.4668 125.4C87.1335 127.133 82.4668 128.333 82.3335 128.066C81.4002 127.266 80.0668 87.1329 80.7335 85.1329C81.4002 83.3996 83.5335 83.6663 95.9335 87.1329C129.134 96.1996 173.534 107.133 180.467 107.8C188.067 108.733 195.667 106.866 237 94.8663C255.8 89.3996 288.467 81.7996 291.667 82.0663C293.667 82.3329 294.467 83.7996 295.4 88.9996ZM132.734 133.666C139.4 135.266 154.067 139.133 165 142.466C188.734 149.666 192.734 149.666 210.2 142.333C227.4 135.266 237.267 133.266 255.667 133.266C272.867 133.266 280.867 135.133 293.134 142.333C299.267 145.933 307.667 155 308.734 159.133C309.667 162.466 308.467 162.333 301.534 158.333C287.4 150.333 257 148.733 237.534 154.866C219.934 160.466 201.667 175.4 192.467 191.666C190.2 195.666 188.067 199 187.667 199C187.4 199 183.667 193.8 179.534 187.533C162.6 162.066 134.467 148.2 103.134 149.933C89.6668 150.733 79.0002 154.466 71.1335 161.133C64.4668 166.866 62.7335 167 64.7335 161.4C67.1335 155 77.2668 144.6 84.8668 140.733C90.6002 137.666 112.734 131.4 118.734 131.133C119.667 131 125.934 132.2 132.734 133.666ZM358.734 148.6C364.2 155.266 356.6 166.866 350.334 161.666C348.067 159.8 347.667 153.266 349.667 149.533C351.267 146.733 356.6 146.066 358.734 148.6ZM126.334 163.133C134.867 165.4 156.334 177.8 162.734 184.2C166.867 188.333 171.134 195.4 177.134 207.933C181.934 217.666 186.467 225.4 187.134 224.866C187.8 224.466 191.8 217.133 196.067 208.733C204.734 191 211.534 182.733 223.4 175.266C236.467 167 244.067 164.066 254.334 163.4C293.267 160.6 323 189.133 323 229C323 248.466 317.4 263.8 304.067 282.066C295.8 293.133 288.6 299.133 277.534 304.066C265 309.8 257.267 311.266 241.667 311.533L227.667 311.8L227.267 315.266C226.6 320.866 230.467 322.066 247.534 321.4C264.067 320.6 276.6 317 289.4 309.266C299.934 303 312.867 290.6 318.467 281.533C323.267 273.933 325.667 271.8 325.667 275.4C325.667 280.466 321 303.533 318.2 312.333C307.934 344.733 277.267 373.266 245.8 379.8C240.467 380.866 235.8 381.533 235.534 381.266C235.134 381 234.467 376.733 233.934 371.8C232.067 356.733 227.267 356.466 222.067 371.133C216.734 386.2 203.667 394.066 184.334 394.2C168.734 394.333 160.334 388.2 151.134 370.066C148.867 365.666 147.534 364.333 145 364.333C141.4 364.333 140.867 366.2 141.534 376.066L141.934 380.466L136.734 379.666C114.2 375.8 100.067 369 84.8668 354.6C71.4002 341.933 62.4668 329 56.8668 313.666C50.4668 296.6 46.2002 273.666 49.5335 273.666C50.0668 273.666 52.8668 277.133 55.6668 281.266C72.6002 307 90.0668 318.333 115.134 319.933C127 320.733 139.667 319.666 142.867 317.666C144.467 316.733 144.467 316.066 142.6 313.133C140.334 309.8 139.934 309.8 129.934 310.6C111.4 311.933 93.8002 305.4 79.1335 291.666C69.1335 282.066 59.1335 266.6 54.3335 252.866C48.7335 237.133 50.3335 217 58.6002 199.533C63.6668 188.6 79.0002 173.4 90.0668 168.333C102.334 162.6 116.6 160.466 126.334 163.133Z" fill="black"/>
<path d="M112.333 209.533C102.867 212.466 94.5999 219.533 92.9999 225.933C91.9333 230.333 92.8666 230.599 98.4666 227.133L102.733 224.599L103.267 232.466C104.2 244.999 111.267 252.466 123.267 253.266C135.533 254.199 144.467 246.866 146.333 234.333C148.867 217.533 130.333 204.066 112.333 209.533ZM132.333 224.199C134.333 228.066 134.067 229.399 130.2 231.799C127 233.933 126.733 233.933 124.067 231.266C121.533 228.866 121.4 227.933 122.733 224.999C124.6 220.866 130.2 220.466 132.333 224.199Z" fill="black"/>
<path d="M243.667 210.466C233.4 214.199 228.333 221.799 228.333 233.399C228.333 238.466 229.133 240.999 232.067 244.733C241.667 257.133 259.267 256.733 268.867 243.933C271 241.133 271.667 238.199 271.667 232.199C271.667 224.999 271.933 224.466 274.333 225.133C275.8 225.666 278.067 226.866 279.4 228.066C281.533 229.933 281.667 229.799 281.667 226.066C281.667 220.466 273.8 212.866 265.133 210.333C257 207.933 250.6 207.933 243.667 210.466ZM251.533 222.466C255.667 226.466 252.733 233.666 246.867 233.666C245.4 233.666 243.667 232.199 242.733 230.333C241.533 227.799 241.667 226.466 243.533 223.666C246.067 219.799 248.6 219.399 251.533 222.466Z" fill="black"/>
<path d="M197.934 249.266C196.067 250.066 188.334 265.133 188.334 267.933C188.334 271.666 186.2 269.266 183.934 263.133C181.534 256.199 174.734 249.266 171.134 249.933C167.134 250.733 167.934 258.199 173.667 271.533C176.6 278.599 180.334 289.133 181.934 294.999C183.534 300.866 185.134 305.666 185.667 305.666C186.467 305.666 194.2 286.066 201.934 264.599C206.867 250.733 205.667 246.199 197.934 249.266Z" fill="black"/>
</svg>
